<svg xmlns="http://www.w3.org/2000/svg" width="20.342" height="20.698" viewBox="0 0 20.342 20.698">
  <g id="_icons" transform="translate(-3 -2.685)">
    <g id="Group_2682" data-name="Group 2682" transform="translate(3 2.685)">
      <path id="Path_1809" data-name="Path 1809" d="M13.171,21.123a7.911,7.911,0,0,1,0-15.821,8.12,8.12,0,0,1,5.877,2.6l-2.034.339a1.172,1.172,0,0,0-.9,1.356,1.1,1.1,0,0,0,1.13.9h.226l4.746-.9a1.172,1.172,0,0,0,.9-1.356l-.9-4.633a1.152,1.152,0,1,0-2.26.452l.339,1.921a10.391,10.391,0,0,0-7.12-2.938A10.256,10.256,0,0,0,4.356,8.126h0a10.213,10.213,0,0,0,0,10.171h0a9.849,9.849,0,0,0,3.729,3.729h0a10.084,10.084,0,0,0,5.085,1.356,1.145,1.145,0,0,0,1.017-.678.961.961,0,0,0,0-.9A1.145,1.145,0,0,0,13.171,21.123Z" transform="translate(-3 -2.685)"/>
      <circle id="Ellipse_119" data-name="Ellipse 119" cx="1.13" cy="1.13" r="1.13" transform="translate(18.082 9.397)"/>
      <circle id="Ellipse_120" data-name="Ellipse 120" cx="1.13" cy="1.13" r="1.13" transform="matrix(0.5, -0.866, 0.866, 0.5, 16.44, 15.49)"/>
      <circle id="Ellipse_121" data-name="Ellipse 121" cx="1.13" cy="1.13" r="1.13" transform="matrix(0.866, -0.5, 0.5, 0.866, 13.131, 17.915)"/>
      <path id="Path_1810" data-name="Path 1810" d="M13.26,12.068V9.13A1.068,1.068,0,0,0,12.13,8,1.068,1.068,0,0,0,11,9.13v3.39a1.026,1.026,0,0,0,.339.791l2.26,2.26a1.092,1.092,0,0,0,1.582,0,1.092,1.092,0,0,0,0-1.582Z" transform="translate(-1.959 -1.993)"/>
    </g>
  </g>
</svg>
