<svg xmlns="http://www.w3.org/2000/svg" width="17.889" height="20.699" viewBox="0 0 17.889 20.699">
  <g id="Fill" transform="translate(0.5 0.5)">
    <path id="Path_1400" data-name="Path 1400" d="M18.111,2h6.332V3.407H18.111a.7.7,0,0,0-.7.7V19.589a.7.7,0,0,0,.7.7h6.332V21.7H18.111A2.111,2.111,0,0,1,16,19.589V4.111A2.111,2.111,0,0,1,18.111,2Z" transform="translate(-16 -2)" stroke="#000" stroke-width="1"/>
    <path id="Path_1401" data-name="Path 1401" d="M3.993,14.791V13.384H14.251L11.437,10.57l1-1.02,3.518,3.518a1.407,1.407,0,0,1,0,1.991l-3.518,3.518-1-.971,2.814-2.814Z" transform="translate(0.523 -4.238)" stroke="#000" stroke-width="1"/>
  </g>
</svg>
