<svg xmlns="http://www.w3.org/2000/svg" width="22" height="22" viewBox="0 0 22 22">
  <path id="globe-alt" d="M14,25A11,11,0,1,0,3,14,11,11,0,0,0,14,25Zm3.429-3.159a8.561,8.561,0,0,0,5.1-7.2,14.092,14.092,0,0,1-3.72,1.311A18.1,18.1,0,0,1,17.429,21.841ZM10.571,6.159a8.575,8.575,0,0,0-4.855,5.694,5.372,5.372,0,0,0,1.5.925,12.134,12.134,0,0,0,1.9.646A19.225,19.225,0,0,1,10.571,6.159Zm1.107,10.176a15.217,15.217,0,0,0,1.1,4.45,5.039,5.039,0,0,0,1.005,1.579,1.2,1.2,0,0,0,.218.172,1.2,1.2,0,0,0,.218-.172,5.039,5.039,0,0,0,1.005-1.579,15.217,15.217,0,0,0,1.1-4.45c-.748.071-1.525.109-2.321.109S12.427,16.407,11.679,16.335Zm-2.491-.382a18.1,18.1,0,0,0,1.383,5.888,8.561,8.561,0,0,1-5.1-7.2A14.093,14.093,0,0,0,9.188,15.953Zm7.256-2.088A21.8,21.8,0,0,1,14,14a21.8,21.8,0,0,1-2.444-.135,17.241,17.241,0,0,1,1.221-6.65,5.04,5.04,0,0,1,1.005-1.579A1.207,1.207,0,0,1,14,5.463a1.207,1.207,0,0,1,.218.172,5.04,5.04,0,0,1,1.005,1.579A17.241,17.241,0,0,1,16.444,13.865Zm2.438-.44a19.224,19.224,0,0,0-1.453-7.266,8.575,8.575,0,0,1,4.855,5.694,5.371,5.371,0,0,1-1.5.925A12.131,12.131,0,0,1,18.882,13.425Z" transform="translate(-3 -3)" fill-rule="evenodd"/>
</svg>
