<svg xmlns="http://www.w3.org/2000/svg" width="20.493" height="13.662" viewBox="0 0 20.493 13.662">
  <g id="Group_13605" data-name="Group 13605" transform="translate(0 -8)">
    <path id="Path_38812" data-name="Path 38812" d="M18.785,8.854A1.3,1.3,0,0,0,17.761,8H.854A.807.807,0,0,0,0,8.854V19.1a.807.807,0,0,0,.854.854H2.732a2.487,2.487,0,0,0,2.391,1.708,2.487,2.487,0,0,0,2.391-1.708h6.319a2.527,2.527,0,0,0,4.782,0h1.025a.807.807,0,0,0,.854-.854V13.977Zm-5.123.854h3.416L18.7,13.977H13.662Zm-4.269,0h3.416v4.269H9.393Zm-4.269,0H8.539v4.269H5.123Zm-3.416,0H4.269v4.269H1.708Zm3.416,11.1A1.708,1.708,0,1,1,6.831,19.1,1.713,1.713,0,0,1,5.123,20.808Zm11.1,0A1.708,1.708,0,1,1,17.931,19.1,1.713,1.713,0,0,1,16.224,20.808Zm2.562-5.977Z" transform="translate(0 0)"/>
    <circle id="Ellipse_204" data-name="Ellipse 204" cx="1.266" cy="1.266" r="1.266" transform="translate(14.978 17.865)"/>
    <circle id="Ellipse_205" data-name="Ellipse 205" cx="1.266" cy="1.266" r="1.266" transform="translate(3.918 17.865)"/>
  </g>
</svg>
