<svg xmlns="http://www.w3.org/2000/svg" width="25.699" height="25.699" viewBox="0 0 25.699 25.699">
  <g id="Group_67" data-name="Group 67" transform="translate(-2 -2)">
    <path id="Path_1453" data-name="Path 1453" d="M18.5,25.129H7.782a3.212,3.212,0,0,1,0-6.425h8.995a4.5,4.5,0,1,0,0-8.995H10.531a12.608,12.608,0,0,1-1.74,2.57h7.986a1.927,1.927,0,0,1,0,3.855H7.782a5.782,5.782,0,0,0,0,11.565H20.109a13.383,13.383,0,0,1-1.6-2.57ZM5.855,2A3.86,3.86,0,0,0,2,5.855c0,4.1,3.855,6.425,3.855,6.425S9.71,9.95,9.71,5.855A3.86,3.86,0,0,0,5.855,2Zm0,5.782A1.928,1.928,0,1,1,7.784,5.855,1.928,1.928,0,0,1,5.855,7.782Z"/>
    <path id="Path_1454" data-name="Path 1454" d="M19.855,14A3.86,3.86,0,0,0,16,17.855c0,4.1,3.855,6.425,3.855,6.425s3.855-2.33,3.855-6.425A3.86,3.86,0,0,0,19.855,14Zm0,5.782a1.928,1.928,0,1,1,1.929-1.927A1.928,1.928,0,0,1,19.855,19.782Z" transform="translate(3.989 3.42)"/>
  </g>
</svg>
