<svg id="Group_13565" data-name="Group 13565" xmlns="http://www.w3.org/2000/svg" width="25.264" height="25.265" viewBox="0 0 25.264 25.265">
  <path id="Path_2992" data-name="Path 2992" d="M310.192,108.038a1.465,1.465,0,1,1-1.465-1.466A1.466,1.466,0,0,1,310.192,108.038Zm-1.825,6.57a6.156,6.156,0,1,1-6.156-6.156A6.163,6.163,0,0,1,308.367,114.608Zm-2.212,0a3.944,3.944,0,1,0-3.944,3.944A3.948,3.948,0,0,0,306.155,114.608Zm8.517-4.945a7.51,7.51,0,0,0-7.509-7.509H296.916a7.509,7.509,0,0,0-7.509,7.509V119.91a7.509,7.509,0,0,0,7.509,7.509h10.246a7.51,7.51,0,0,0,7.509-7.509ZM312.206,119.8a5.157,5.157,0,0,1-5.157,5.157H297.029a5.157,5.157,0,0,1-5.157-5.157V109.776a5.157,5.157,0,0,1,5.157-5.157h10.021a5.157,5.157,0,0,1,5.157,5.157Z" transform="translate(-289.407 -102.154)"/>
</svg>
