<svg id="Group_13523" data-name="Group 13523" xmlns="http://www.w3.org/2000/svg" width="19.263" height="19.263" viewBox="0 0 19.263 19.263">
  <path id="Path_38785" data-name="Path 38785" d="M18.778,10.811A1.207,1.207,0,0,0,17.638,10H8.809a1.207,1.207,0,0,0-1.14.811L6,15.618v6.421a.8.8,0,0,0,.8.8h.8a.8.8,0,0,0,.8-.8v-.8h9.631v.8a.8.8,0,0,0,.8.8h.8a.8.8,0,0,0,.8-.8V15.618ZM8.809,18.829a1.2,1.2,0,1,1,1.2-1.2A1.2,1.2,0,0,1,8.809,18.829Zm8.829,0a1.2,1.2,0,1,1,1.2-1.2A1.2,1.2,0,0,1,17.638,18.829ZM7.605,14.816l1.2-3.612h8.829l1.2,3.612Z" transform="translate(-3.592 -5.987)" fill="#012348"/>
  <path id="Path_38786" data-name="Path 38786" d="M0,0H19.263V19.263H0Z" fill="none"/>
</svg>
