<svg id="Group_36" data-name="Group 36" xmlns="http://www.w3.org/2000/svg" width="27.957" height="27.957" viewBox="0 0 27.957 27.957">
  <path id="Path_1416" data-name="Path 1416" d="M0,0H27.957V27.957H0Z" fill="none"/>
  <path id="Path_1417" data-name="Path 1417" d="M14.814,10.154a4.66,4.66,0,1,0,4.66,4.66A4.658,4.658,0,0,0,14.814,10.154Zm10.414,3.495A10.477,10.477,0,0,0,15.979,4.4V2h-2.33V4.4A10.477,10.477,0,0,0,4.4,13.649H2v2.33H4.4a10.477,10.477,0,0,0,9.249,9.249v2.4h2.33v-2.4a10.477,10.477,0,0,0,9.249-9.249h2.4v-2.33ZM14.814,22.968a8.154,8.154,0,1,1,8.154-8.154,8.156,8.156,0,0,1-8.154,8.154Z" transform="translate(-0.835 -0.835)"/>
</svg>
