<svg xmlns="http://www.w3.org/2000/svg" width="20.675" height="15.334" viewBox="0 0 20.675 15.334">
  <g id="Group_13604" data-name="Group 13604" transform="translate(-16 -79.667)">
    <circle id="Ellipse_202" data-name="Ellipse 202" cx="3.101" cy="3.101" r="3.101" transform="translate(18.584 81.217)"/>
    <path id="Path_38809" data-name="Path 38809" d="M25.39,276.861A8.164,8.164,0,0,0,21.858,276c-1.92,0-5.858,1.178-5.858,3.532v1.809h6.461v-.692a3.555,3.555,0,0,1,.948-2.323A6.485,6.485,0,0,1,25.39,276.861Z" transform="translate(0 -187.719)"/>
    <path id="Path_38810" data-name="Path 38810" d="M190.719,288c-2.243,0-6.719,1.385-6.719,4.135V294.2h13.439v-2.067C197.439,289.385,192.962,288,190.719,288Z" transform="translate(-160.764 -199.202)"/>
    <ellipse id="Ellipse_203" data-name="Ellipse 203" cx="3.618" cy="3.877" rx="3.618" ry="3.877" transform="translate(26.337 79.667)"/>
  </g>
</svg>
