<svg xmlns="http://www.w3.org/2000/svg" width="24" height="24" viewBox="0 0 24 24">
  <g id="Group_2560" data-name="Group 2560" transform="translate(0)">
    <path id="Path_1781" data-name="Path 1781" d="M5.121,31.5H16.5a1.5,1.5,0,0,0,0-3H5.121l1.939-1.939A1.5,1.5,0,1,0,4.939,24.44l-4.5,4.5a1.5,1.5,0,0,0,0,2.121l4.5,4.5A1.5,1.5,0,1,0,7.061,33.44Z" transform="translate(0 -18)"/>
    <path id="Path_1782" data-name="Path 1782" d="M49.5,0h-12A1.5,1.5,0,0,0,36,1.5v3a1.5,1.5,0,0,0,3,0V3h9V21H39V19.5a1.5,1.5,0,0,0-3,0v3A1.5,1.5,0,0,0,37.5,24h12A1.5,1.5,0,0,0,51,22.5V1.5A1.5,1.5,0,0,0,49.5,0Z" transform="translate(-27 0)"/>
  </g>
</svg>
