<svg xmlns="http://www.w3.org/2000/svg" width="27.43" height="27.43" viewBox="0 0 27.43 27.43">
  <g id="Group_146" data-name="Group 146" transform="translate(-73.089 -73.089)">
    <path id="Path_1534" data-name="Path 1534" d="M86.8,73.089A13.715,13.715,0,1,0,100.519,86.8,13.73,13.73,0,0,0,86.8,73.089Zm0,25.266A11.552,11.552,0,1,1,98.355,86.8,11.564,11.564,0,0,1,86.8,98.355Z"/>
    <path id="Path_1535" data-name="Path 1535" d="M195.222,151.495c0-.868,1.269-1.016,2.37-1.016a8.908,8.908,0,0,1,3.641,1.1l.232-2.392a8.978,8.978,0,0,0-3.365-.825l.339-2.434h-2.264l.339,2.434c-2.92.275-3.873,1.968-3.873,3.386,0,3.576,6.666,2.815,6.666,5.015,0,.826-.782,1.122-2.158,1.122a5.891,5.891,0,0,1-3.978-1.333l-.36,2.688a8.974,8.974,0,0,0,3.7.847l-.339,2.349h2.264l-.339-2.371c3.428-.3,4.042-2.117,4.042-3.322C202.142,152.49,195.222,153.547,195.222,151.495Z" transform="translate(-110.587 -67.378)"/>
  </g>
</svg>
