<svg id="Group_13567" data-name="Group 13567" xmlns="http://www.w3.org/2000/svg" width="26.137" height="17.883" viewBox="0 0 26.137 17.883">
  <path id="Path_2996" data-name="Path 2996" d="M200.094,297.349a5.714,5.714,0,0,0-5.714-5.714H179.671a5.714,5.714,0,0,0-5.714,5.714V303.8a5.715,5.715,0,0,0,5.714,5.715h14.708a5.715,5.715,0,0,0,5.714-5.715Zm-8.088,3.4-6.578,3.242c-.257.139-1.154-.047-1.154-.339v-6.655c0-.3.9-.482,1.162-.335l6.284,3.412C191.984,300.222,192.272,300.6,192.006,300.746Z" transform="translate(-173.957 -291.635)"/>
</svg>
