<svg xmlns="http://www.w3.org/2000/svg" width="20.559" height="23.129" viewBox="0 0 20.559 23.129">
  <g id="Group_2472" data-name="Group 2472" transform="translate(-4 -3)">
    <path id="Path_1708" data-name="Path 1708" d="M20.7,5.57H7.855A1.285,1.285,0,0,0,6.57,6.855V22.274a1.285,1.285,0,0,0,1.285,1.285H20.7a1.285,1.285,0,0,0,1.285-1.285V6.855A1.285,1.285,0,0,0,20.7,5.57ZM7.855,3A3.855,3.855,0,0,0,4,6.855V22.274a3.855,3.855,0,0,0,3.855,3.855H20.7a3.855,3.855,0,0,0,3.855-3.855V6.855A3.855,3.855,0,0,0,20.7,3Z" transform="translate(0 0)" fill-rule="evenodd"/>
    <path id="Path_1709" data-name="Path 1709" d="M8,7H18.28V9.57H8Z" transform="translate(1.14 1.14)"/>
    <path id="Path_1710" data-name="Path 1710" d="M8,11H18.28v2.57H8Z" transform="translate(1.14 2.28)"/>
    <path id="Path_1711" data-name="Path 1711" d="M8,15h6.425v2.57H8Z" transform="translate(1.14 3.419)"/>
  </g>
</svg>
