<svg id="Group_13564" data-name="Group 13564" xmlns="http://www.w3.org/2000/svg" width="25.273" height="20.724" viewBox="0 0 25.273 20.724">
  <path id="Path_2990" data-name="Path 2990" d="M199.741,108.18a10.535,10.535,0,0,1-2.569.727c.409-.069,1-.81,1.24-1.11a4.65,4.65,0,0,0,.84-1.542c.022-.044.035-.1-.008-.133a.148.148,0,0,0-.136.011,12.979,12.979,0,0,1-3.02,1.156.2.2,0,0,1-.209-.055,2.463,2.463,0,0,0-.264-.27,5.33,5.33,0,0,0-1.463-.9,5.1,5.1,0,0,0-2.243-.362,5.367,5.367,0,0,0-2.129.6,5.493,5.493,0,0,0-1.717,1.4,5.279,5.279,0,0,0-1.025,2.053,5.548,5.548,0,0,0-.054,2.168c.016.121.005.138-.1.121a16.123,16.123,0,0,1-10.374-5.28c-.121-.138-.187-.138-.287.01a5.262,5.262,0,0,0,.9,6.216c.2.193.412.385.637.561a5.3,5.3,0,0,1-2-.561c-.121-.077-.182-.033-.193.1a3.152,3.152,0,0,0,.033.594,5.32,5.32,0,0,0,3.278,4.241,3.062,3.062,0,0,0,.665.2,5.93,5.93,0,0,1-1.963.061c-.143-.028-.2.044-.143.181a5.521,5.521,0,0,0,4.125,3.455c.187.033.374.033.562.076-.012.017-.023.017-.033.033-.464.706-2.069,1.232-2.817,1.493a10.09,10.09,0,0,1-4.279.548c-.23-.034-.278-.031-.341,0s-.008.093.066.153c.292.193.589.363.891.529a14.162,14.162,0,0,0,2.86,1.143,15.233,15.233,0,0,0,14.79-3.458c3.03-3.011,4.093-7.163,4.093-11.322,0-.163.193-.253.307-.338a10.206,10.206,0,0,0,2.059-2.093.815.815,0,0,0,.18-.4v-.022C199.891,108.114,199.844,108.133,199.741,108.18Z" transform="translate(-174.619 -105.696)"/>
</svg>
