<svg xmlns="http://www.w3.org/2000/svg" width="24.828" height="32.39" viewBox="0 0 24.828 32.39">
  <g id="Group_2699" data-name="Group 2699" transform="translate(-240.802 -310.931)">
    <g id="Group_2699-2" data-name="Group 2699" transform="translate(240.802 310.931)">
      <path id="Path_1816" data-name="Path 1816" d="M242.532,343.321a1.4,1.4,0,0,0-.161-.074,2.162,2.162,0,0,1-1.088-3.44c1.1-1.428,2.211-2.843,3.311-4.268a1.174,1.174,0,0,0,.21-.415c.454-1.792.929-3.579,1.331-5.383a17.788,17.788,0,0,0,.254-2.318c.148-1.688.283-3.377.423-5.065.09-1.08.186-2.16.261-3.242a.479.479,0,0,0-.175-.35,4.322,4.322,0,1,1,6.826-3.951,4.248,4.248,0,0,1-2.11,4.184.529.529,0,0,0-.21.346c-.067.628-.118,1.258-.146,1.888a.686.686,0,0,0,.16.446q1.444,1.591,2.919,3.155c.1.1.275.125.489.216v-.494q0-3.95,0-7.9c0-1.021.374-1.4,1.383-1.4h8.155a1.109,1.109,0,0,1,1.264,1.255q0,4.156,0,8.311a1.1,1.1,0,0,1-1.246,1.235h-1.691a7.793,7.793,0,0,1,.206.754,2.109,2.109,0,0,1-2.033,2.468c-2.581.021-5.162.014-7.744,0a2.044,2.044,0,0,1-1.716-.968c-.186-.265-.395-.514-.593-.77l-.089.013c-.034.5-.074,1.006-.1,1.51,0,.065.085.139.14.2,1.317,1.465,2.631,2.932,3.956,4.389a2.377,2.377,0,0,1,.657,1.686c-.012,1.865,0,3.729,0,5.594a2.158,2.158,0,0,1-1.725,2.348.226.226,0,0,0-.052.035h-.759a.226.226,0,0,0-.052-.035,2.158,2.158,0,0,1-1.725-2.347c0-1.064,0-2.128,0-3.192a4.824,4.824,0,0,0-.053-1.657,5.132,5.132,0,0,0-1.091-1.292c-.134-.151-.272-.3-.445-.487-.2.8-.351,1.544-.573,2.263a3.987,3.987,0,0,1-.576,1.208c-1.081,1.44-2.213,2.84-3.3,4.275a3.057,3.057,0,0,1-1.668,1.264Zm5.618-23.834c-.143,1.7-.29,3.437-.435,5.176-.136,1.636-.261,3.274-.411,4.909a1.336,1.336,0,0,0,.359,1.094c1.408,1.553,2.806,3.116,4.214,4.669a.976.976,0,0,1,.27.709c-.01,1.686-.007,3.371,0,5.057a1.077,1.077,0,1,0,2.151-.013c0-1.865-.007-3.73.008-5.594a1.614,1.614,0,0,0-.444-1.169c-1.376-1.511-2.737-3.036-4.111-4.549a.867.867,0,0,1-.252-.713c.083-.848.162-1.7.223-2.548a.745.745,0,0,0-.124-.427c-.178-.273-.4-.518-.584-.785a.532.532,0,0,1,.1-.759.514.514,0,0,1,.756.1q1.238,1.537,2.46,3.087a1.1,1.1,0,0,0,.883.477c2.529,0,5.058.009,7.587,0a1.043,1.043,0,0,0,1.038-1.117,1.059,1.059,0,0,0-1.129-1.03q-3.161,0-6.322,0a.826.826,0,0,1-.668-.28c-1.053-1.15-2.116-2.291-3.17-3.44a1.32,1.32,0,0,1-.39-1.2,14.553,14.553,0,0,0,.13-1.546Zm7.807-3.114v8.591h8.561v-8.592h-2.129v.357c0,1.106,0,2.212,0,3.317a.569.569,0,0,1-.287.555.554.554,0,0,1-.621-.068c-.331-.224-.672-.434-1-.67a.357.357,0,0,0-.5-.008c-.3.229-.628.424-.941.637a.613.613,0,0,1-.673.118.622.622,0,0,1-.3-.643c.006-1.085,0-2.17,0-3.254,0-.111-.01-.222-.016-.339Zm-6.531,2.116a3.229,3.229,0,1,0,.013-6.458,3.229,3.229,0,0,0-.013,6.458Zm-2.563,12.917c-.339,1.355-.651,2.649-.993,3.935a2.446,2.446,0,0,1-.4.837c-1.084,1.424-2.191,2.829-3.287,4.243a1.071,1.071,0,0,0,.109,1.572,1.115,1.115,0,0,0,1.588-.255q1.825-2.34,3.641-4.688a1.285,1.285,0,0,0,.245-.435c.27-1.036.525-2.076.775-3.117a.358.358,0,0,0-.055-.28C247.968,332.625,247.436,332.043,246.862,331.406Zm14.428-12.316v-2.711h-2.1v2.706c.219-.145.411-.256.583-.39a.666.666,0,0,1,.915-.007C260.865,318.827,261.064,318.941,261.289,319.089Z" transform="translate(-240.802 -310.931)"/>
    </g>
  </g>
</svg>
