<svg xmlns="http://www.w3.org/2000/svg" width="28.233" height="30.751" viewBox="0 0 28.233 30.751">
  <g id="Group_53" data-name="Group 53" transform="translate(-1.003 -0.022)">
    <path id="Path_1411" data-name="Path 1411" d="M29.219.813A.642.642,0,0,0,28.3.1L2,13.882a1.875,1.875,0,0,0-.128,3.244h0l5.854,3.7a.321.321,0,0,0,.385-.031L23.72,6.843a.32.32,0,0,1,.463.439L11.713,22.925a.321.321,0,0,0,.08.471l8.257,5.223a1.866,1.866,0,0,0,2.811-1.149Z" transform="translate(0 0)"/>
    <path id="Path_1412" data-name="Path 1412" d="M7.994,19.193a.322.322,0,0,0-.494.271c0,1.356,0,4.6,0,4.6a1.284,1.284,0,0,0,2.191.908l2.59-2.589a.322.322,0,0,0-.055-.5Z" transform="translate(1.843 5.424)"/>
  </g>
</svg>
