<svg xmlns="http://www.w3.org/2000/svg" width="20.51" height="20.001" viewBox="0 0 20.51 20.001">
  <g id="Group_2634" data-name="Group 2634" transform="translate(-1.75 -2)">
    <path id="Path_1797" data-name="Path 1797" d="M12.25,2A9.81,9.81,0,0,0,4.77,5.46L3.41,4.25A1,1,0,0,0,1.75,5V9a1,1,0,0,0,1,1h4.5a1,1,0,0,0,.66-1.75L6.26,6.78a7.86,7.86,0,0,1,6-2.78A8,8,0,1,1,4.72,14.67a1,1,0,0,0-1.89.66A10,10,0,1,0,12.25,2Z"/>
    <path id="Path_1798" data-name="Path 1798" d="M16,16a1,1,0,0,1-.6-.2l-4-3A1,1,0,0,1,11,12V8a1,1,0,0,1,2,0v3.5l3.6,2.7A1,1,0,0,1,16,16Z"/>
  </g>
</svg>
