<svg id="Group_2619" data-name="Group 2619" xmlns="http://www.w3.org/2000/svg" width="50.83" height="50.83" viewBox="0 0 50.83 50.83">
  <path id="Path_1791" data-name="Path 1791" d="M0,0H50.83V50.83H0Z" fill="none"/>
  <path id="Path_1792" data-name="Path 1792" d="M42.24,28.415v6.354h6.354V39H42.24v6.354H38V39H31.651V34.769H38V28.415ZM42.257,3a2.1,2.1,0,0,1,2.1,2.1V24.179H40.123V7.236H6.236V36.885L27.415,15.708l6.354,6.354v5.992L27.415,21.7,12.223,36.887H27.415v4.236H4.1a2.1,2.1,0,0,1-2.1-2.1V5.1A2.118,2.118,0,0,1,4.1,3H42.257Zm-27.55,8.472a4.236,4.236,0,1,1-4.236,4.236A4.236,4.236,0,0,1,14.708,11.472Z" transform="translate(2.236 3.354)"/>
</svg>
