<svg id="Group_13566" data-name="Group 13566" xmlns="http://www.w3.org/2000/svg" width="22.556" height="22.504" viewBox="0 0 22.556 22.504">
  <path id="Path_2994" data-name="Path 2994" d="M65.378,291.867h4.68V306.9h-4.68Zm2.341-7.47a2.71,2.71,0,1,1-2.713,2.708,2.71,2.71,0,0,1,2.713-2.708m5.272,22.5h4.67v-7.436c0-1.96.37-3.859,2.8-3.859,2.395,0,2.429,2.242,2.429,3.986V306.9h4.669v-8.245c0-4.049-.872-7.16-5.6-7.16a4.913,4.913,0,0,0-4.425,2.428h-.061v-2.057H72.991Z" transform="translate(-65.006 -284.397)"/>
</svg>
