<svg id="Group_29" data-name="Group 29" xmlns="http://www.w3.org/2000/svg" width="37.563" height="37.563" viewBox="0 0 37.563 37.563">
  <path id="Path_1388" data-name="Path 1388" d="M0,0H37.563V37.563H0Z" fill="none"/>
  <path id="Path_1389" data-name="Path 1389" d="M19.216,9A18.51,18.51,0,0,0,2,20.738a18.494,18.494,0,0,0,34.432,0A18.5,18.5,0,0,0,19.216,9Zm0,19.564a7.826,7.826,0,1,1,7.826-7.826A7.828,7.828,0,0,1,19.216,28.564Zm0-12.521a4.7,4.7,0,1,0,4.7,4.7A4.7,4.7,0,0,0,19.216,16.043Z" transform="translate(-0.435 -1.957)"/>
</svg>
