<svg id="Group_13563" data-name="Group 13563" xmlns="http://www.w3.org/2000/svg" width="11.501" height="24.758" viewBox="0 0 11.501 24.758">
  <path id="Path_2988" data-name="Path 2988" d="M76.006,114.953v11.97a.312.312,0,0,0,.312.311h4.445a.312.312,0,0,0,.311-.311V114.758H84.3a.312.312,0,0,0,.311-.285l.309-3.665a.312.312,0,0,0-.311-.338H81.074v-2.6a1.1,1.1,0,0,1,1.1-1.1h2.484a.312.312,0,0,0,.311-.312v-3.665a.312.312,0,0,0-.311-.312h-4.2a4.459,4.459,0,0,0-4.459,4.459v3.534H73.783a.312.312,0,0,0-.311.312v3.665a.311.311,0,0,0,.311.311h2.223Z" transform="translate(-73.472 -102.477)" fill-rule="evenodd"/>
</svg>
