<svg xmlns="http://www.w3.org/2000/svg" width="22.416" height="24" viewBox="0 0 22.416 24">
  <g id="icons" transform="translate(-0.792)">
    <path id="settings" d="M22.2,14.4,21,13.7a2.058,2.058,0,0,1,0-3.5l1.2-.7a1.9,1.9,0,0,0,.7-2.7l-1-1.7a1.9,1.9,0,0,0-2.7-.7L18,5.1a2,2,0,0,1-3-1.7V2a2.006,2.006,0,0,0-2-2H11A2.006,2.006,0,0,0,9,2V3.3A2,2,0,0,1,6,5L4.8,4.4a1.939,1.939,0,0,0-2.7.7l-1,1.7a2.181,2.181,0,0,0,.7,2.8l1.2.7a1.97,1.97,0,0,1,0,3.4l-1.2.7a1.9,1.9,0,0,0-.7,2.7l1,1.7a1.9,1.9,0,0,0,2.7.7L6,18.9a2,2,0,0,1,3,1.7V22a2.006,2.006,0,0,0,2,2h2a2.006,2.006,0,0,0,2-2V20.7A2,2,0,0,1,18,19l1.2.7a1.939,1.939,0,0,0,2.7-.7l1-1.7A2.282,2.282,0,0,0,22.2,14.4ZM12,16a4,4,0,1,1,4-4A4.012,4.012,0,0,1,12,16Z"/>
  </g>
</svg>
