<svg id="Layer_2" data-name="Layer 2" xmlns="http://www.w3.org/2000/svg" width="30.063" height="30.063" viewBox="0 0 30.063 30.063">
  <path id="Path_38822" data-name="Path 38822" d="M27.281,32.75H8.781A5.781,5.781,0,0,1,3,26.969V10.781A5.781,5.781,0,0,1,8.781,5h18.5a5.781,5.781,0,0,1,5.781,5.781V26.969A5.781,5.781,0,0,1,27.281,32.75ZM8.781,7.313a3.469,3.469,0,0,0-3.469,3.469V26.969a3.469,3.469,0,0,0,3.469,3.469h18.5a3.469,3.469,0,0,0,3.469-3.469V10.781a3.469,3.469,0,0,0-3.469-3.469Z" transform="translate(-3 -2.688)"/>
  <path id="Path_38823" data-name="Path 38823" d="M24.781,25.938H20.156A1.156,1.156,0,0,1,19,24.781V20.156A1.156,1.156,0,0,1,20.156,19h4.625a1.156,1.156,0,0,1,1.156,1.156v4.625A1.156,1.156,0,0,1,24.781,25.938Zm-3.469-2.312h2.313V21.313H21.313Z" transform="translate(-0.5 -0.5)"/>
  <path id="Path_38824" data-name="Path 38824" d="M31.906,13.313H4.156a1.156,1.156,0,0,1,0-2.312h27.75a1.156,1.156,0,0,1,0,2.313Z" transform="translate(-3 -1.75)"/>
  <path id="Path_38825" data-name="Path 38825" d="M11.156,9.938A1.156,1.156,0,0,1,10,8.781V4.156a1.156,1.156,0,0,1,2.313,0V8.781A1.156,1.156,0,0,1,11.156,9.938Z" transform="translate(-1.906 -3)"/>
  <path id="Path_38826" data-name="Path 38826" d="M21.156,9.938A1.156,1.156,0,0,1,20,8.781V4.156a1.156,1.156,0,0,1,2.313,0V8.781A1.156,1.156,0,0,1,21.156,9.938Z" transform="translate(-0.344 -3)"/>
</svg>
