<svg xmlns="http://www.w3.org/2000/svg" width="19.435" height="27.657" viewBox="0 0 19.435 27.657">
  <g id="Menu" transform="translate(-96.532 -27.797)">
    <path id="Path_1793" data-name="Path 1793" d="M113.961,28H97.21a.478.478,0,0,0-.478.478V50.944a.478.478,0,0,0,.478.478h9.641v3.347a.478.478,0,0,0,.757.388l1.85-1.332,1.85,1.332a.478.478,0,0,0,.757-.388V51.422h1.894a1.808,1.808,0,0,0,1.806-1.806V29.8A1.808,1.808,0,0,0,113.961,28Zm-16.273.956h1.434V50.466H97.688Zm13.422,24.882-1.372-.988a.478.478,0,0,0-.559,0l-1.372.988V51.422h3.3Zm3.7-4.219a.851.851,0,0,1-.85.85H100.078V28.954h13.882a.851.851,0,0,1,.85.85Z" transform="translate(0)" stroke="#000" stroke-width="0.4"/>
    <path id="Path_1794" data-name="Path 1794" d="M287.224,135.068a2.2,2.2,0,0,0-1.909,2.4,2.364,2.364,0,0,0,1.431,2.315v5.323a.478.478,0,0,0,.956,0v-5.323a2.364,2.364,0,0,0,1.431-2.315A2.2,2.2,0,0,0,287.224,135.068Zm0,3.846c-.517,0-.953-.662-.953-1.445s.436-1.445.953-1.445.953.662.953,1.445-.437,1.445-.953,1.445Z" transform="translate(-177.314 -100.672)" stroke="#000" stroke-width="0.4"/>
    <path id="Path_1795" data-name="Path 1795" d="M206.124,135.068a.478.478,0,0,0-.478.478v2.415a.953.953,0,1,1-1.906,0v-2.415a.478.478,0,1,0-.956,0v2.415a1.907,1.907,0,0,0,1.431,1.841v5.305a.478.478,0,0,0,.956,0V139.8a1.907,1.907,0,0,0,1.431-1.841v-2.415A.478.478,0,0,0,206.124,135.068Z" transform="translate(-99.714 -100.672)" stroke="#000" stroke-width="0.2"/>
    <path id="Path_1796" data-name="Path 1796" d="M227.21,137.875a.478.478,0,0,0,.478-.478v-1.851a.478.478,0,1,0-.956,0V137.4a.478.478,0,0,0,.478.478Z" transform="translate(-122.232 -100.672)" stroke="#000" stroke-width="0.2"/>
  </g>
</svg>
