<svg id="Page-1" xmlns="http://www.w3.org/2000/svg" width="33.147" height="22.601" viewBox="0 0 33.147 22.601">
  <g id="Core">
    <g id="visibility">
      <path id="Shape" d="M16.574-.5A17.752,17.752,0,0,0,0,10.8a17.8,17.8,0,0,0,33.147,0A17.752,17.752,0,0,0,16.574-.5Zm0,18.834A7.46,7.46,0,0,1,9.04,10.8a7.534,7.534,0,0,1,15.067,0,7.46,7.46,0,0,1-7.534,7.534Zm0-12.054a4.439,4.439,0,0,0-4.52,4.52,4.52,4.52,0,0,0,9.04,0,4.439,4.439,0,0,0-4.52-4.52Z" transform="translate(0 0.5)" fill-rule="evenodd"/>
    </g>
  </g>
</svg>
