<svg xmlns="http://www.w3.org/2000/svg" width="22" height="19.556" viewBox="0 0 22 19.556">
  <path id="Path_1707" data-name="Path 1707" d="M25.458,11.234A1.838,1.838,0,0,0,23.722,10H10.278a1.838,1.838,0,0,0-1.736,1.234L6,18.556v9.778a1.226,1.226,0,0,0,1.222,1.222H8.444a1.222,1.222,0,0,0,1.222-1.222V27.111H24.333v1.222a1.226,1.226,0,0,0,1.222,1.222h1.222A1.222,1.222,0,0,0,28,28.333V18.556Zm-15.18,12.21a1.833,1.833,0,1,1,1.833-1.833A1.831,1.831,0,0,1,10.278,23.444Zm13.444,0a1.833,1.833,0,1,1,1.833-1.833A1.831,1.831,0,0,1,23.722,23.444ZM8.444,17.333l1.833-5.5H23.722l1.833,5.5Z" transform="translate(-6 -10)"/>
</svg>
