<svg xmlns="http://www.w3.org/2000/svg" width="20.969" height="26.211" viewBox="0 0 20.969 26.211">
  <path id="Path_1488" data-name="Path 1488" d="M10.553,12.484h1.311a1.311,1.311,0,0,0,0-2.621H10.553a1.311,1.311,0,0,0,0,2.621Zm0,2.621a1.311,1.311,0,0,0,0,2.621h7.863a1.311,1.311,0,0,0,0-2.621ZM24.969,11.1a1.717,1.717,0,0,0-.079-.354v-.118a1.4,1.4,0,0,0-.249-.367h0L16.778,2.393h0a1.4,1.4,0,0,0-.367-.249.419.419,0,0,0-.118,0A1.153,1.153,0,0,0,15.86,2H7.932A3.932,3.932,0,0,0,4,5.932V24.279a3.932,3.932,0,0,0,3.932,3.932H21.037a3.932,3.932,0,0,0,3.932-3.932V11.1ZM17.105,6.469,20.5,9.863H18.416a1.311,1.311,0,0,1-1.311-1.311Zm5.242,17.81a1.311,1.311,0,0,1-1.311,1.311H7.932a1.311,1.311,0,0,1-1.311-1.311V5.932A1.311,1.311,0,0,1,7.932,4.621h6.553V8.553a3.932,3.932,0,0,0,3.932,3.932h3.932Zm-3.932-3.932H10.553a1.311,1.311,0,0,0,0,2.621h7.863a1.311,1.311,0,0,0,0-2.621Z" transform="translate(-4 -2)"/>
</svg>
