<svg xmlns="http://www.w3.org/2000/svg" width="54.695" height="48.617" viewBox="0 0 54.695 48.617">
  <path id="Path_1736" data-name="Path 1736" d="M54.374,13.069A4.569,4.569,0,0,0,50.06,10H16.635a4.569,4.569,0,0,0-4.315,3.069L6,31.27V55.579a3.048,3.048,0,0,0,3.039,3.039h3.039a3.038,3.038,0,0,0,3.039-3.039V52.54H51.579v3.039a3.048,3.048,0,0,0,3.039,3.039h3.039a3.038,3.038,0,0,0,3.039-3.039V31.27ZM16.635,43.424a4.558,4.558,0,1,1,4.558-4.558A4.552,4.552,0,0,1,16.635,43.424Zm33.424,0a4.558,4.558,0,1,1,4.558-4.558A4.552,4.552,0,0,1,50.06,43.424ZM12.077,28.232l4.558-13.674H50.06l4.558,13.674Z" transform="translate(-6 -10)"/>
</svg>
