<svg xmlns="http://www.w3.org/2000/svg" width="34.813" height="30.945" viewBox="0 0 34.813 30.945">
  <path id="Path_38806" data-name="Path 38806" d="M36.79,11.953A2.908,2.908,0,0,0,34.044,10H12.769a2.908,2.908,0,0,0-2.746,1.953L6,23.538V39.011a1.94,1.94,0,0,0,1.934,1.934H9.868A1.934,1.934,0,0,0,11.8,39.011V37.077H35.011v1.934a1.94,1.94,0,0,0,1.934,1.934h1.934a1.934,1.934,0,0,0,1.934-1.934V23.538ZM12.769,31.275a2.9,2.9,0,1,1,2.9-2.9A2.9,2.9,0,0,1,12.769,31.275Zm21.275,0a2.9,2.9,0,1,1,2.9-2.9A2.9,2.9,0,0,1,34.044,31.275ZM9.868,21.6l2.9-8.7H34.044l2.9,8.7Z" transform="translate(-6 -10)" fill="#070707"/>
</svg>
