<svg xmlns="http://www.w3.org/2000/svg" width="23.66" height="23.704" viewBox="0 0 23.66 23.704">
  <path id="Path_1442" data-name="Path 1442" d="M23.77,18.248v3.267A2.178,2.178,0,0,1,21.4,23.693,21.551,21.551,0,0,1,12,20.349a21.235,21.235,0,0,1-6.534-6.534A21.551,21.551,0,0,1,2.121,4.374,2.178,2.178,0,0,1,4.288,2H7.555A2.178,2.178,0,0,1,9.733,3.873a13.983,13.983,0,0,0,.762,3.06,2.178,2.178,0,0,1-.49,2.3L8.622,10.614a17.424,17.424,0,0,0,6.534,6.534l1.383-1.383a2.178,2.178,0,0,1,2.3-.49,13.983,13.983,0,0,0,3.06.762,2.178,2.178,0,0,1,1.873,2.211Z" transform="translate(-1.111 -1)" stroke="#000" stroke-linecap="round" stroke-linejoin="round" stroke-width="2"/>
</svg>
