<svg xmlns="http://www.w3.org/2000/svg" width="24.492" height="31.346" viewBox="0 0 24.492 31.346">
  <path id="Path_38813" data-name="Path 38813" d="M0,62.834v-.98a1.469,1.469,0,0,1,1.469-1.469H23.51V57.447a1.47,1.47,0,0,1,2.508-1.039l4.9,4.9a1.469,1.469,0,0,1,0,2.078l-4.9,4.9a1.47,1.47,0,0,1-2.508-1.039V64.3H1.469A1.469,1.469,0,0,1,0,62.834ZM29.877,72.14H7.837V69.2a1.47,1.47,0,0,0-2.508-1.039l-4.9,4.9a1.469,1.469,0,0,0,0,2.078l4.9,4.9A1.47,1.47,0,0,0,7.837,79V76.059h22.04a1.469,1.469,0,0,0,1.469-1.469v-.98A1.469,1.469,0,0,0,29.877,72.14Z" transform="translate(80.468) rotate(90)" fill="#012348"/>
</svg>
