<svg xmlns="http://www.w3.org/2000/svg" width="25.595" height="22.862" viewBox="0 0 25.595 22.862">
  <path id="Path_1439" data-name="Path 1439" d="M27.753,11.38A2.054,2.054,0,0,0,25.812,10H10.782a2.055,2.055,0,0,0-1.94,1.38L6,19.565V30.5a1.37,1.37,0,0,0,1.366,1.366H8.733A1.366,1.366,0,0,0,10.1,30.5V29.129H26.5V30.5a1.37,1.37,0,0,0,1.366,1.366h1.366A1.366,1.366,0,0,0,30.595,30.5V19.565ZM10.782,25.03a2.05,2.05,0,1,1,2.05-2.05A2.047,2.047,0,0,1,10.782,25.03Zm15.03,0a2.05,2.05,0,1,1,2.05-2.05A2.047,2.047,0,0,1,25.812,25.03ZM8.733,18.2l2.05-6.149h15.03l2.05,6.149Z" transform="translate(-5.5 -9.5)" stroke="#000" stroke-width="1"/>
</svg>
