<svg xmlns="http://www.w3.org/2000/svg" width="26.945" height="31.595" viewBox="0 0 26.945 31.595">
  <path id="Path_1450" data-name="Path 1450" d="M81.915,28.571v-.023c-.013-.3-.023-.625-.028-.982a3.352,3.352,0,0,0-3.158-3.28,13.018,13.018,0,0,1-8.861-3.728l-.02-.02a2.028,2.028,0,0,0-2.752,0l-.021.02a13.014,13.014,0,0,1-8.857,3.728,3.347,3.347,0,0,0-3.158,3.28c-.005.355-.015.679-.028.982V28.6c-.071,3.7-.159,8.315,1.386,12.5a15.908,15.908,0,0,0,3.823,5.946,19.991,19.991,0,0,0,7.478,4.418,2.329,2.329,0,0,0,.309.084,2.279,2.279,0,0,0,1.2-.084A20,20,0,0,0,76.7,47.049,15.936,15.936,0,0,0,80.521,41.1C82.071,36.9,81.983,32.283,81.915,28.571Zm-6.34,3.812a1.7,1.7,0,0,1-.49,1.033l-.8.8-7.12,7.107a1.739,1.739,0,0,1-.349.268,1.7,1.7,0,0,1-2.058-.268L61.731,38.3a1.7,1.7,0,1,1,2.406-2.4l.916.913a1.287,1.287,0,0,0,1.818,0h0l5.556-5.548.248-.25a1.7,1.7,0,0,1,2.9,1.371Z" transform="translate(-55 -20)"/>
</svg>
