<svg xmlns="http://www.w3.org/2000/svg" width="23.896" height="23.896" viewBox="0 0 23.896 23.896">
  <path id="Path_1728" data-name="Path 1728" d="M11.356.121a1.492,1.492,0,0,1,1.176,0L22.987,4.6a1.489,1.489,0,0,1,.873,1.671,1.544,1.544,0,0,1-1.5,1.195v.373a1.092,1.092,0,0,1-1.12,1.12H2.568a1.146,1.146,0,0,1-1.12-1.12V7.467A1.529,1.529,0,0,1,.027,6.273,1.494,1.494,0,0,1,.9,4.6Zm.588,5.853A1.493,1.493,0,1,0,10.451,4.48,1.492,1.492,0,0,0,11.944,5.974ZM5.928,19.415H7.8V10.454h2.987v8.961h2.282V10.454h2.987v8.961h1.867V10.454h2.987v9.162c.028.014.056-.009.084.051l2.24,1.493A1.494,1.494,0,0,1,22.4,23.9H1.448a1.493,1.493,0,0,1-.786-2.735L2.9,19.667c.027-.061.054-.037.04-.051V10.454H5.928Z" transform="translate(0.004 0)"/>
</svg>
