<svg xmlns="http://www.w3.org/2000/svg" width="23.376" height="36.43" viewBox="0 0 23.376 36.43">
  <path id="Path_39687" data-name="Path 39687" d="M9.274,13.76,14.723,9.8a3.391,3.391,0,0,1,2.113-.653,4.447,4.447,0,0,1,4.126,3.094,7.5,7.5,0,0,0,.867,2.009,8.486,8.486,0,0,0,6.8,3.4v3.4a11.876,11.876,0,0,1-9.183-4.33l-1.185,6.723,3.5,2.941L25.54,36.767l-3.2,1.163L18.876,28.4l-5.763-4.836A3.4,3.4,0,0,1,11.9,20.33l.865-4.9-1.151.836L8,21.24l-2.751-2,4-5.5Zm10-5.46a3.4,3.4,0,1,1,3.4-3.4A3.4,3.4,0,0,1,19.275,8.3ZM14.223,30.707,8.759,37.218l-2.6-2.184,5.059-6.028L12.482,25.3l3.045,2.55-1.3,2.858Z" transform="translate(-5.249 -1.5)" fill="#012348"/>
</svg>
