<svg xmlns="http://www.w3.org/2000/svg" width="24" height="26.8" viewBox="0 0 24 26.8">
  <path id="Path_1799" data-name="Path 1799" d="M16,2A12.035,12.035,0,0,0,4,14v3a4.951,4.951,0,0,0,5,5,.945.945,0,0,0,1-1V13a.945.945,0,0,0-1-1,4.839,4.839,0,0,0-2.9,1,9.945,9.945,0,0,1,19.8,0A4.839,4.839,0,0,0,23,12a.945.945,0,0,0-1,1v8a.945.945,0,0,0,1,1,3.661,3.661,0,0,0,1.8-.4,10.2,10.2,0,0,1-4.9,4.5,2.576,2.576,0,0,0-2.5-2.2A2.433,2.433,0,0,0,15,26.3a2.54,2.54,0,0,0,2.5,2.5h.4A11.95,11.95,0,0,0,28,17V14A12.035,12.035,0,0,0,16,2Z" transform="translate(-4 -2)"/>
</svg>
