<svg xmlns="http://www.w3.org/2000/svg" width="33.25" height="33.25" viewBox="0 0 33.25 33.25">
  <g id="vuesax_bold_gallery-add" data-name="vuesax/bold/gallery-add" transform="translate(-748 -252)">
    <g id="gallery-add" transform="translate(748 252)">
      <path id="Vector" d="M6.886,0H2.812A2.537,2.537,0,0,0,.319,1.385,2.9,2.9,0,0,0,0,2.812V6.886A2.586,2.586,0,0,0,2.812,9.7H6.886a2.9,2.9,0,0,0,1.427-.319A2.537,2.537,0,0,0,9.7,6.886V2.812A2.586,2.586,0,0,0,6.886,0Zm1.3,5.445a.9.9,0,0,1-.568.249H5.666V6.4L5.68,7.62a.876.876,0,0,1-.263.6.818.818,0,0,1-.568.236.834.834,0,0,1-.831-.831V5.68l-1.94.014a.846.846,0,0,1-.831-.845.834.834,0,0,1,.831-.831L3.3,4.032h.72V2.092a.831.831,0,1,1,1.663,0l-.014.984v.942H7.62a.834.834,0,0,1,.831.831A.943.943,0,0,1,8.188,5.445Z" transform="translate(22.167 1.385)"/>
      <path id="Vector-2" data-name="Vector" d="M6.595,3.3A3.3,3.3,0,1,1,3.3,0,3.3,3.3,0,0,1,6.595,3.3Z" transform="translate(9.171 7.786)"/>
      <path id="Vector-3" data-name="Vector" d="M26.281,8.313H25.63V14.7l-.18-.152a3.089,3.089,0,0,0-3.907,0L15.78,19.493a3.089,3.089,0,0,1-3.907,0L11.4,19.1a3.077,3.077,0,0,0-3.657-.194L2.563,22.388a7.388,7.388,0,0,1-.485-2.729V8.049c0-3.907,2.064-5.971,5.971-5.971H19.4V1.427A2.9,2.9,0,0,1,19.714,0H8.049C3.006,0,0,3.006,0,8.049v11.61a9.314,9.314,0,0,0,.776,3.935c1.191,2.632,3.741,4.115,7.273,4.115h11.61c5.043,0,8.049-3.006,8.049-8.049V7.994A2.9,2.9,0,0,1,26.281,8.313Z" transform="translate(2.771 2.771)"/>
      <path id="Vector-4" data-name="Vector" d="M0,0H33.25V33.25H0Z" fill="none" opacity="0"/>
    </g>
  </g>
</svg>
