<svg id="vuesax_bold_sms" data-name="vuesax/bold/sms" xmlns="http://www.w3.org/2000/svg" width="33" height="33" viewBox="0 0 33 33">
  <g id="sms">
    <path id="Vector" d="M0,0H33V33H0Z" fill="none" opacity="0"/>
    <path id="Vector-2" data-name="Vector" d="M20.625,0H6.875C2.75,0,0,2.063,0,6.875V16.5c0,4.813,2.75,6.875,6.875,6.875h13.75c4.125,0,6.875-2.062,6.875-6.875V6.875C27.5,2.063,24.75,0,20.625,0Zm.646,8.374-4.3,3.438a5.308,5.308,0,0,1-6.435,0l-4.3-3.438a1.058,1.058,0,0,1-.165-1.458,1.028,1.028,0,0,1,1.444-.165l4.3,3.437a3.281,3.281,0,0,0,3.864,0l4.3-3.437a1.015,1.015,0,0,1,1.444.165A1.043,1.043,0,0,1,21.271,8.374Z" transform="translate(2.75 4.813)"/>
  </g>
</svg>
