<svg id="vuesax_bold_car" data-name="vuesax/bold/car" xmlns="http://www.w3.org/2000/svg" width="33" height="33" viewBox="0 0 33 33">
  <g id="car">
    <path id="Vector" d="M26.813,8.14a1.039,1.039,0,0,1-1.031,1.031H1.031a1.031,1.031,0,0,1,0-2.062h1.4L2.956,4.62C3.451,2.214,4.482,0,8.58,0h9.653c4.1,0,5.129,2.214,5.624,4.62l.522,2.489h1.4A1.039,1.039,0,0,1,26.813,8.14Z" transform="translate(3.094 2.86)"/>
    <path id="Vector-2" data-name="Vector" d="M28.781,4.689C28.575,2.42,27.97,0,23.556,0H6.011C1.6,0,1.006,2.42.786,4.689l-.77,8.374a3.752,3.752,0,0,0,.963,2.874,3.859,3.859,0,0,0,2.86,1.251H6.423A2.639,2.639,0,0,0,9.352,15.07l.275-.825c.316-.949.4-1.183,1.636-1.183H18.3c1.237,0,1.279.138,1.636,1.183l.275.825a2.639,2.639,0,0,0,2.929,2.118h2.585a3.881,3.881,0,0,0,2.86-1.251,3.752,3.752,0,0,0,.962-2.874ZM10.658,7.563H6.533a1.031,1.031,0,0,1,0-2.062h4.125a1.031,1.031,0,0,1,0,2.063Zm12.375,0H18.908a1.031,1.031,0,0,1,0-2.062h4.125a1.031,1.031,0,0,1,0,2.063Z" transform="translate(1.717 14.094)"/>
    <path id="Vector-3" data-name="Vector" d="M0,0H33V33H0Z" transform="translate(33 33) rotate(180)" fill="none" opacity="0"/>
  </g>
</svg>
