<svg id="vuesax_bold_play" data-name="vuesax/bold/play" xmlns="http://www.w3.org/2000/svg" width="33" height="33" viewBox="0 0 33 33">
  <g id="play">
    <path id="Vector" d="M18.549,8.623,2.2,18.482A1.452,1.452,0,0,1,0,17.245v-11A6.236,6.236,0,0,1,9.35.841l6.311,3.63,2.874,1.65A1.456,1.456,0,0,1,18.549,8.623Z" transform="translate(5.5 4.577)"/>
    <path id="Vector-2" data-name="Vector" d="M17.557,6.773,11.988,9.99l-5.555,3.2a5.436,5.436,0,0,1-5.885-.247,1.359,1.359,0,0,1,.138-2.269L18.162.2a1.366,1.366,0,0,1,2.063.921A5.447,5.447,0,0,1,17.557,6.773Z" transform="translate(7.317 14.485)"/>
    <path id="Vector-3" data-name="Vector" d="M0,0H33V33H0Z" fill="none" opacity="0"/>
  </g>
</svg>
