<svg xmlns="http://www.w3.org/2000/svg" width="33" height="33" viewBox="0 0 33 33">
  <g id="vuesax_bold_arrow-down" data-name="vuesax/bold/arrow-down" transform="translate(-108 -252)">
    <g id="arrow-down" transform="translate(108 252)">
      <path id="Vector" d="M19.432,0H7.956C2.972,0,0,2.972,0,7.956V19.418c0,5,2.972,7.97,7.956,7.97H19.418c4.985,0,7.956-2.972,7.956-7.956V7.956C27.388,2.972,24.416,0,19.432,0Zm.863,16.762L14.42,22.636a1.025,1.025,0,0,1-1.452,0L7.093,16.762A1.026,1.026,0,1,1,8.545,15.31l4.122,4.122V5.478a1.027,1.027,0,1,1,2.054,0V19.432l4.122-4.122a1.033,1.033,0,0,1,1.452,0,1.016,1.016,0,0,1,.3.726A1.05,1.05,0,0,1,20.294,16.762Z" transform="translate(2.806 2.806)"/>
      <path id="Vector-2" data-name="Vector" d="M0,0H33V33H0Z" transform="translate(33 33) rotate(180)" fill="none" opacity="0"/>
    </g>
  </g>
</svg>
