<svg id="vuesax_bold_card" data-name="vuesax/bold/card" xmlns="http://www.w3.org/2000/svg" width="33" height="33" viewBox="0 0 33 33">
  <g id="card">
    <path id="Vector" d="M27.5,5.706a1.655,1.655,0,0,1-1.65,1.65H1.65A1.655,1.655,0,0,1,0,5.706V5.692A5.686,5.686,0,0,1,5.692,0h16.1A5.71,5.71,0,0,1,27.5,5.706Z" transform="translate(2.75 4.675)"/>
    <path id="Vector-2" data-name="Vector" d="M0,1.65V8.539a5.686,5.686,0,0,0,5.692,5.693h16.1A5.71,5.71,0,0,0,27.5,8.525V1.65A1.655,1.655,0,0,0,25.85,0H1.65A1.655,1.655,0,0,0,0,1.65ZM8.25,9.625H5.5a1.031,1.031,0,0,1,0-2.062H8.25a1.031,1.031,0,0,1,0,2.063Zm8.938,0h-5.5a1.031,1.031,0,0,1,0-2.062h5.5a1.031,1.031,0,0,1,0,2.063Z" transform="translate(2.75 14.094)"/>
    <path id="Vector-3" data-name="Vector" d="M0,0H33V33H0Z" fill="none" opacity="0"/>
  </g>
</svg>
