<svg width="25" height="31" viewBox="0 0 25 31" fill="none" xmlns="http://www.w3.org/2000/svg">
<path d="M18.3432 0.777344C18.4121 0.777344 18.4809 0.777344 18.5536 0.777344C18.7224 2.86252 17.9265 4.42056 16.9592 5.54884C16.0101 6.66933 14.7104 7.75606 12.6084 7.59117C12.4681 5.53586 13.2653 4.09337 14.2313 2.96769C15.1272 1.91861 16.7696 0.985082 18.3432 0.777344Z" fill="black"/>
<path d="M24.707 22.4817C24.707 22.5025 24.707 22.5207 24.707 22.5401C24.1163 24.3293 23.2736 25.8627 22.2453 27.2857C21.3066 28.5775 20.1563 30.3161 18.1022 30.3161C16.3274 30.3161 15.1485 29.1748 13.3294 29.1436C11.4053 29.1125 10.3471 30.0979 8.58781 30.3459C8.38657 30.3459 8.18532 30.3459 7.98797 30.3459C6.69609 30.159 5.65351 29.1358 4.89396 28.214C2.65428 25.49 0.923557 21.9715 0.601562 17.4687C0.601562 17.0273 0.601562 16.5871 0.601562 16.1457C0.737891 12.9231 2.30372 10.303 4.385 9.03324C5.48342 8.35809 6.99342 7.78291 8.6748 8.03999C9.3954 8.15165 10.1316 8.39834 10.7769 8.64243C11.3884 8.87744 12.1531 9.29421 12.8776 9.27214C13.3684 9.25786 13.8566 9.00208 14.3513 8.82161C15.8002 8.29837 17.2207 7.69852 19.0929 7.98027C21.343 8.32044 22.94 9.32018 23.9267 10.8626C22.0233 12.074 20.5185 13.8995 20.7756 17.0169C21.0041 19.8486 22.6504 21.5053 24.707 22.4817Z" fill="black"/>
</svg>
