<svg width="36" height="36" viewBox="0 0 36 36" fill="none" xmlns="http://www.w3.org/2000/svg">
<path d="M34.875 29.2494C34.875 29.5478 34.7565 29.8339 34.5455 30.0449C34.3345 30.2559 34.0484 30.3744 33.75 30.3744H2.25C1.95163 30.3744 1.66548 30.2559 1.4545 30.0449C1.24353 29.8339 1.125 29.5478 1.125 29.2494C1.125 28.951 1.24353 28.6649 1.4545 28.4539C1.66548 28.2429 1.95163 28.1244 2.25 28.1244H33.75C34.0484 28.1244 34.3345 28.2429 34.5455 28.4539C34.7565 28.6649 34.875 28.951 34.875 29.2494ZM2.292 13.8114C2.22485 13.5756 2.23657 13.3243 2.32539 13.0958C2.4142 12.8673 2.57524 12.674 2.784 12.5454L17.409 3.54542C17.586 3.43407 17.7909 3.375 18 3.375C18.2091 3.375 18.414 3.43407 18.591 3.54542L33.216 12.5454C33.4242 12.6741 33.5847 12.8671 33.6733 13.0952C33.7619 13.3234 33.7737 13.5742 33.7068 13.8096C33.64 14.0451 33.4982 14.2523 33.303 14.3998C33.1078 14.5474 32.8697 14.6273 32.625 14.6274H29.25V23.6274H31.5C31.7984 23.6274 32.0845 23.7459 32.2955 23.9569C32.5065 24.1679 32.625 24.454 32.625 24.7524C32.625 25.0508 32.5065 25.3369 32.2955 25.5479C32.0845 25.7589 31.7984 25.8774 31.5 25.8774H4.5C4.20163 25.8774 3.91548 25.7589 3.7045 25.5479C3.49353 25.3369 3.375 25.0508 3.375 24.7524C3.375 24.454 3.49353 24.1679 3.7045 23.9569C3.91548 23.7459 4.20163 23.6274 4.5 23.6274H6.75V14.6274H3.375C3.1303 14.6277 2.89218 14.5482 2.69674 14.4009C2.50131 14.2537 2.35921 14.0467 2.292 13.8114ZM20.25 22.5009C20.25 22.7993 20.3685 23.0854 20.5795 23.2964C20.7905 23.5074 21.0766 23.6259 21.375 23.6259C21.6734 23.6259 21.9595 23.5074 22.1705 23.2964C22.3815 23.0854 22.5 22.7993 22.5 22.5009V15.7509C22.5 15.4525 22.3815 15.1664 22.1705 14.9554C21.9595 14.7444 21.6734 14.6259 21.375 14.6259C21.0766 14.6259 20.7905 14.7444 20.5795 14.9554C20.3685 15.1664 20.25 15.4525 20.25 15.7509V22.5009ZM13.5 22.4994C13.5 22.7978 13.6185 23.0839 13.8295 23.2949C14.0405 23.5059 14.3266 23.6244 14.625 23.6244C14.9234 23.6244 15.2095 23.5059 15.4205 23.2949C15.6315 23.0839 15.75 22.7978 15.75 22.4994V15.7494C15.75 15.451 15.6315 15.1649 15.4205 14.9539C15.2095 14.7429 14.9234 14.6244 14.625 14.6244C14.3266 14.6244 14.0405 14.7429 13.8295 14.9539C13.6185 15.1649 13.5 15.451 13.5 15.7494V22.4994Z" fill="black"/>
</svg>
