<svg width="29" height="21" viewBox="0 0 29 21" fill="none" xmlns="http://www.w3.org/2000/svg">
<path d="M26.6597 0.5625H2.6457C2.11496 0.5625 1.60595 0.773337 1.23066 1.14863C0.855368 1.52392 0.644531 2.03293 0.644531 2.56367V18.561C0.644531 19.0917 0.855368 19.6008 1.23066 19.976C1.60595 20.3513 2.11496 20.5622 2.6457 20.5622H26.6597C27.1905 20.5622 27.6995 20.3513 28.0748 19.976C28.45 19.6008 28.6609 19.0917 28.6609 18.561V2.56367C28.6609 2.03293 28.45 1.52392 28.0748 1.14863C27.6995 0.773337 27.1905 0.5625 26.6597 0.5625ZM15.6533 16.5718H13.6521C13.3868 16.5718 13.1323 16.4664 12.9446 16.2788C12.757 16.0911 12.6515 15.8366 12.6515 15.5713C12.6515 15.3059 12.757 15.0514 12.9446 14.8637C13.1323 14.6761 13.3868 14.5707 13.6521 14.5707H15.6533C15.9187 14.5707 16.1732 14.6761 16.3608 14.8637C16.5485 15.0514 16.6539 15.3059 16.6539 15.5713C16.6539 15.8366 16.5485 16.0911 16.3608 16.2788C16.1732 16.4664 15.9187 16.5718 15.6533 16.5718ZM23.658 16.5718H19.6556C19.3903 16.5718 19.1358 16.4664 18.9481 16.2788C18.7605 16.0911 18.655 15.8366 18.655 15.5713C18.655 15.3059 18.7605 15.0514 18.9481 14.8637C19.1358 14.6761 19.3903 14.5707 19.6556 14.5707H23.658C23.9233 14.5707 24.1778 14.6761 24.3655 14.8637C24.5531 15.0514 24.6586 15.3059 24.6586 15.5713C24.6586 15.8366 24.5531 16.0911 24.3655 16.2788C24.1778 16.4664 23.9233 16.5718 23.658 16.5718ZM2.6457 5.67749V2.56367H26.6597V5.67749H2.6457Z" fill="black"/>
</svg>
