<svg width="24" height="24" viewBox="0 0 24 24" fill="none" xmlns="http://www.w3.org/2000/svg">
<g id="Group 47">
<path id="Vector" d="M11.75 22.5C13.1617 22.5 14.5596 22.2219 15.8638 21.6817C17.1681 21.1415 18.3532 20.3496 19.3514 19.3514C20.3496 18.3532 21.1415 17.1681 21.6817 15.8638C22.2219 14.5596 22.5 13.1617 22.5 11.75C22.5 10.3383 22.2219 8.9404 21.6817 7.63615C21.1415 6.3319 20.3496 5.14683 19.3514 4.1486C18.3532 3.15037 17.1681 2.35853 15.8638 1.81829C14.5596 1.27806 13.1617 1 11.75 1C8.89892 1 6.16462 2.13259 4.1486 4.1486C2.13259 6.16462 1 8.89892 1 11.75C1 14.6011 2.13259 17.3354 4.1486 19.3514C6.16462 21.3674 8.89892 22.5 11.75 22.5Z" stroke="black" stroke-width="2" stroke-linecap="round" stroke-linejoin="round"/>
<path id="Vector_2" d="M10.8535 11.3018H11.7493V17.1247H12.6452" stroke="black" stroke-width="2" stroke-linecap="round" stroke-linejoin="round"/>
<path id="Vector_3" d="M11.526 8.61458C12.0012 8.61458 12.4569 8.42582 12.7929 8.08982C13.1289 7.75381 13.3177 7.2981 13.3177 6.82292C13.3177 6.34774 13.1289 5.89202 12.7929 5.55602C12.4569 5.22001 12.0012 5.03125 11.526 5.03125C11.0509 5.03125 10.5951 5.22001 10.2591 5.55602C9.92314 5.89202 9.73438 6.34774 9.73438 6.82292C9.73438 7.2981 9.92314 7.75381 10.2591 8.08982C10.5951 8.42582 11.0509 8.61458 11.526 8.61458Z" fill="black"/>
</g>
</svg>
